<?xml version="1.0" encoding="UTF-8"?> <svg xmlns="http://www.w3.org/2000/svg" width="20" height="15" viewBox="0 0 20 15"><path id="mail" d="M18.125-15H1.875A1.875,1.875,0,0,0,0-13.125v11.25A1.875,1.875,0,0,0,1.875,0h16.25A1.875,1.875,0,0,0,20-1.875v-11.25A1.875,1.875,0,0,0,18.125-15Zm0,1.875v1.594c-.876.713-2.272,1.822-5.257,4.16C12.21-6.854,10.907-5.611,10-5.625c-.907.015-2.21-1.229-2.868-1.746-2.985-2.337-4.381-3.446-5.257-4.16v-1.594ZM1.875-1.875v-7.25c.9.713,2.164,1.713,4.1,3.228C6.828-5.225,8.323-3.741,10-3.75c1.669.009,3.145-1.453,4.025-2.146,1.935-1.515,3.2-2.516,4.1-3.229v7.25Z" transform="translate(0 15)" fill="#fff"></path></svg> 